<mxfile host="Electron" agent="Mozilla/5.0 (Windows NT 10.0; Win64; x64) AppleWebKit/537.36 (KHTML, like Gecko) draw.io/24.7.8 Chrome/128.0.6613.36 Electron/32.0.1 Safari/537.36" version="24.7.8">
  <diagram name="Page-1" id="-H_mtQnk-PTXWXPvYvuk">
    <mxGraphModel dx="1436" dy="968" grid="1" gridSize="10" guides="1" tooltips="1" connect="1" arrows="1" fold="1" page="1" pageScale="1" pageWidth="1169" pageHeight="827" math="0" shadow="0">
      <root>
        <mxCell id="0" />
        <mxCell id="1" parent="0" />
        <mxCell id="bvTuibAeaC0NRe69B3yS-6" style="edgeStyle=orthogonalEdgeStyle;rounded=0;orthogonalLoop=1;jettySize=auto;html=1;entryX=0;entryY=0.5;entryDx=0;entryDy=0;" parent="1" source="zA23MoTUsTF4_91t8viU-2" target="bvTuibAeaC0NRe69B3yS-1" edge="1">
          <mxGeometry relative="1" as="geometry" />
        </mxCell>
        <mxCell id="bvTuibAeaC0NRe69B3yS-7" style="edgeStyle=orthogonalEdgeStyle;rounded=0;orthogonalLoop=1;jettySize=auto;html=1;entryX=0;entryY=0.5;entryDx=0;entryDy=0;" parent="1" source="zA23MoTUsTF4_91t8viU-2" target="bvTuibAeaC0NRe69B3yS-3" edge="1">
          <mxGeometry relative="1" as="geometry" />
        </mxCell>
        <mxCell id="bvTuibAeaC0NRe69B3yS-8" style="edgeStyle=orthogonalEdgeStyle;rounded=0;orthogonalLoop=1;jettySize=auto;html=1;entryX=0;entryY=0.5;entryDx=0;entryDy=0;" parent="1" source="zA23MoTUsTF4_91t8viU-2" target="bvTuibAeaC0NRe69B3yS-4" edge="1">
          <mxGeometry relative="1" as="geometry" />
        </mxCell>
        <mxCell id="zA23MoTUsTF4_91t8viU-2" value="MongoDB&lt;div&gt;shard1&lt;/div&gt;" style="shape=cylinder3;whiteSpace=wrap;html=1;boundedLbl=1;backgroundOutline=1;size=15;" parent="1" vertex="1">
          <mxGeometry x="700" y="120" width="60" height="80" as="geometry" />
        </mxCell>
        <mxCell id="mjIp_5prs85UFXJ5Mf7U-3" style="edgeStyle=orthogonalEdgeStyle;rounded=0;orthogonalLoop=1;jettySize=auto;html=1;entryX=0;entryY=0.5;entryDx=0;entryDy=0;" parent="1" source="zA23MoTUsTF4_91t8viU-3" edge="1">
          <mxGeometry relative="1" as="geometry">
            <mxPoint x="560" y="315" as="targetPoint" />
          </mxGeometry>
        </mxCell>
        <mxCell id="zA23MoTUsTF4_91t8viU-3" value="pymongo-api" style="rounded=1;whiteSpace=wrap;html=1;" parent="1" vertex="1">
          <mxGeometry x="360" y="285" width="120" height="60" as="geometry" />
        </mxCell>
        <mxCell id="hR7J2rn-pitUn4OtnqpB-1" style="edgeStyle=orthogonalEdgeStyle;rounded=0;orthogonalLoop=1;jettySize=auto;html=1;entryX=0;entryY=0.5;entryDx=0;entryDy=0;" edge="1" parent="1" source="mjIp_5prs85UFXJ5Mf7U-1" target="bvTuibAeaC0NRe69B3yS-9">
          <mxGeometry relative="1" as="geometry" />
        </mxCell>
        <mxCell id="hR7J2rn-pitUn4OtnqpB-5" style="edgeStyle=orthogonalEdgeStyle;rounded=0;orthogonalLoop=1;jettySize=auto;html=1;entryX=0;entryY=0.5;entryDx=0;entryDy=0;" edge="1" parent="1" source="mjIp_5prs85UFXJ5Mf7U-1" target="hR7J2rn-pitUn4OtnqpB-3">
          <mxGeometry relative="1" as="geometry" />
        </mxCell>
        <mxCell id="mjIp_5prs85UFXJ5Mf7U-1" value="MongoDB&lt;div&gt;shard2&lt;/div&gt;" style="shape=cylinder3;whiteSpace=wrap;html=1;boundedLbl=1;backgroundOutline=1;size=15;" parent="1" vertex="1">
          <mxGeometry x="700" y="430" width="60" height="80" as="geometry" />
        </mxCell>
        <mxCell id="mjIp_5prs85UFXJ5Mf7U-4" style="edgeStyle=orthogonalEdgeStyle;rounded=0;orthogonalLoop=1;jettySize=auto;html=1;exitX=1;exitY=0.5;exitDx=0;exitDy=0;entryX=0;entryY=0.5;entryDx=0;entryDy=0;entryPerimeter=0;" parent="1" target="zA23MoTUsTF4_91t8viU-2" edge="1">
          <mxGeometry relative="1" as="geometry">
            <mxPoint x="640" y="315" as="sourcePoint" />
          </mxGeometry>
        </mxCell>
        <mxCell id="mjIp_5prs85UFXJ5Mf7U-5" style="edgeStyle=orthogonalEdgeStyle;rounded=0;orthogonalLoop=1;jettySize=auto;html=1;entryX=0;entryY=0.5;entryDx=0;entryDy=0;entryPerimeter=0;" parent="1" target="mjIp_5prs85UFXJ5Mf7U-1" edge="1">
          <mxGeometry relative="1" as="geometry">
            <mxPoint x="640" y="315" as="sourcePoint" />
          </mxGeometry>
        </mxCell>
        <mxCell id="hR7J2rn-pitUn4OtnqpB-12" style="edgeStyle=orthogonalEdgeStyle;rounded=0;orthogonalLoop=1;jettySize=auto;html=1;entryX=0;entryY=0.5;entryDx=0;entryDy=0;" edge="1" parent="1" source="mjIp_5prs85UFXJ5Mf7U-6" target="hR7J2rn-pitUn4OtnqpB-7">
          <mxGeometry relative="1" as="geometry" />
        </mxCell>
        <mxCell id="hR7J2rn-pitUn4OtnqpB-13" style="edgeStyle=orthogonalEdgeStyle;rounded=0;orthogonalLoop=1;jettySize=auto;html=1;entryX=0;entryY=0.5;entryDx=0;entryDy=0;" edge="1" parent="1" source="mjIp_5prs85UFXJ5Mf7U-6" target="hR7J2rn-pitUn4OtnqpB-9">
          <mxGeometry relative="1" as="geometry" />
        </mxCell>
        <mxCell id="hR7J2rn-pitUn4OtnqpB-14" style="edgeStyle=orthogonalEdgeStyle;rounded=0;orthogonalLoop=1;jettySize=auto;html=1;entryX=0;entryY=0.5;entryDx=0;entryDy=0;" edge="1" parent="1" source="mjIp_5prs85UFXJ5Mf7U-6" target="hR7J2rn-pitUn4OtnqpB-11">
          <mxGeometry relative="1" as="geometry" />
        </mxCell>
        <mxCell id="mjIp_5prs85UFXJ5Mf7U-6" value="mongos_router" style="rhombus;whiteSpace=wrap;html=1;" parent="1" vertex="1">
          <mxGeometry x="550" y="272.5" width="100" height="85" as="geometry" />
        </mxCell>
        <mxCell id="bvTuibAeaC0NRe69B3yS-1" value="shard1&lt;br&gt;(Primary)" style="rounded=0;whiteSpace=wrap;html=1;" parent="1" vertex="1">
          <mxGeometry x="810" y="80" width="80" height="30" as="geometry" />
        </mxCell>
        <mxCell id="bvTuibAeaC0NRe69B3yS-3" value="shard1_replica&lt;br&gt;(Secondary)" style="rounded=0;whiteSpace=wrap;html=1;" parent="1" vertex="1">
          <mxGeometry x="810" y="145" width="80" height="30" as="geometry" />
        </mxCell>
        <mxCell id="bvTuibAeaC0NRe69B3yS-4" value="shard1_replica&lt;br&gt;_replica&lt;div&gt;(Secondary)&lt;/div&gt;" style="rounded=0;whiteSpace=wrap;html=1;" parent="1" vertex="1">
          <mxGeometry x="810" y="210" width="90" height="40" as="geometry" />
        </mxCell>
        <mxCell id="bvTuibAeaC0NRe69B3yS-9" value="shard2&lt;br&gt;(Primary)" style="rounded=0;whiteSpace=wrap;html=1;" parent="1" vertex="1">
          <mxGeometry x="800" y="385" width="80" height="30" as="geometry" />
        </mxCell>
        <mxCell id="hR7J2rn-pitUn4OtnqpB-2" value="shard2_replica&lt;br&gt;(Secondary)" style="rounded=0;whiteSpace=wrap;html=1;" vertex="1" parent="1">
          <mxGeometry x="800" y="450" width="80" height="30" as="geometry" />
        </mxCell>
        <mxCell id="hR7J2rn-pitUn4OtnqpB-3" value="shard2_replica&lt;br&gt;_replica&lt;div&gt;(Secondary)&lt;/div&gt;" style="rounded=0;whiteSpace=wrap;html=1;" vertex="1" parent="1">
          <mxGeometry x="800" y="515" width="90" height="40" as="geometry" />
        </mxCell>
        <mxCell id="hR7J2rn-pitUn4OtnqpB-4" style="edgeStyle=orthogonalEdgeStyle;rounded=0;orthogonalLoop=1;jettySize=auto;html=1;entryX=0.061;entryY=0.71;entryDx=0;entryDy=0;entryPerimeter=0;" edge="1" parent="1" source="mjIp_5prs85UFXJ5Mf7U-1" target="hR7J2rn-pitUn4OtnqpB-2">
          <mxGeometry relative="1" as="geometry" />
        </mxCell>
        <mxCell id="hR7J2rn-pitUn4OtnqpB-7" value="configSrv" style="rounded=0;whiteSpace=wrap;html=1;" vertex="1" parent="1">
          <mxGeometry x="700" y="260" width="140" height="27.5" as="geometry" />
        </mxCell>
        <mxCell id="hR7J2rn-pitUn4OtnqpB-9" value="configSrv_replica" style="rounded=0;whiteSpace=wrap;html=1;" vertex="1" parent="1">
          <mxGeometry x="700" y="301.25" width="140" height="27.5" as="geometry" />
        </mxCell>
        <mxCell id="hR7J2rn-pitUn4OtnqpB-11" value="configSrv_replica_replica" style="rounded=0;whiteSpace=wrap;html=1;" vertex="1" parent="1">
          <mxGeometry x="700" y="345" width="140" height="27.5" as="geometry" />
        </mxCell>
      </root>
    </mxGraphModel>
  </diagram>
</mxfile>
